<?xml version="1.0" standalone="no"?>
<!DOCTYPE svg PUBLIC "-//W3C//DTD SVG 20010904//EN"
 "http://www.w3.org/TR/2001/REC-SVG-20010904/DTD/svg10.dtd">
<svg version="1.0" xmlns="http://www.w3.org/2000/svg"
 width="225.000000pt" height="225.000000pt" viewBox="0 0 225.000000 225.000000"
 preserveAspectRatio="xMidYMid meet">
<metadata>
Created by potrace 1.14, written by Peter Selinger 2001-2017
</metadata>
<g transform="translate(0.000000,225.000000) scale(0.100000,-0.100000)"
fill="#000000" stroke="none">
<path d="M955 2045 c-357 -66 -640 -329 -737 -686 -33 -121 -33 -347 0 -468
90 -333 340 -583 673 -673 122 -33 347 -33 469 0 116 32 249 99 345 175 76 60
165 154 165 174 0 5 -52 39 -115 77 l-116 68 -67 -64 c-204 -192 -503 -232
-755 -101 -98 50 -220 172 -270 270 -136 262 -91 560 118 769 90 91 200 154
306 176 l59 12 0 143 c0 79 -1 143 -2 142 -2 0 -34 -7 -73 -14z"/>
<path d="M1220 1915 l0 -141 59 -12 c106 -22 216 -85 306 -176 169 -169 233
-396 175 -621 -11 -43 -19 -79 -18 -80 36 -27 232 -134 238 -130 14 9 59 157
71 238 15 97 5 272 -21 372 -95 355 -395 627 -752 683 l-58 9 0 -142z"/>
</g>
</svg>
